<?xml version="1.0" encoding="utf-8"?>
<!-- Generator: Adobe Illustrator 19.2.1, SVG Export Plug-In . SVG Version: 6.00 Build 0)  -->
<svg version="1.1" xmlns="http://www.w3.org/2000/svg" xmlns:xlink="http://www.w3.org/1999/xlink" x="0px" y="0px"
	 viewBox="0 0 116.4 34.1" style="enable-background:new 0 0 116.4 34.1;" xml:space="preserve">
<style type="text/css">
	.st0{display:none;}
	.st1{display:inline;}
	.st2{fill:#536A7F;}
	.st3{fill:#28AAE2;}
	.st4{fill:#FCB51A;}
	.st5{clip-path:url(#SVGID_2_);fill:#FCB51A;}
	.st6{clip-path:url(#SVGID_4_);fill:#FCB51A;}
	.st7{clip-path:url(#SVGID_6_);fill:#FCB51A;}
	.st8{clip-path:url(#SVGID_8_);fill:#FCB51A;}
	.st9{clip-path:url(#SVGID_10_);fill:#FCB51A;}
	.st10{clip-path:url(#SVGID_12_);fill:#FCB51A;}
	.st11{clip-path:url(#SVGID_14_);fill:#FCB51A;}
	.st12{clip-path:url(#SVGID_16_);fill:#FCB51A;}
	.st13{clip-path:url(#SVGID_18_);fill:#FCB51A;}
</style>
<g id="Layer_1" class="st0">
	<g class="st1">
		<g>
			<path class="st2" d="M29.8,34.1h22v-6.7H37.5v-5.1h13.9v-6.7H37.5v-4.7h14.2V4.1h-22V34.1z M56.2,34.1h22v-6.7H63.9v-5.1h13.9
				v-6.7H63.9v-4.7h14.2V4.1h-22V34.1z M25.4,14.1c0-5.6-3.8-10-10.4-10H0v6.7h13.8c2,0,3.7,1.2,3.7,3.2c0,2.1-1.7,3.2-3.7,3.2H0
				v16.8h7.7V24.1h4l5,10.1h8.9l-6.1-11C22.2,22.1,25.4,19.3,25.4,14.1z M102.7,20.6L90.5,4.1h-8v30h7.7V16.8L103,34.1h7.5v-30h-7.8
				L102.7,20.6L102.7,20.6z M114.6,27.4v6.7h6.7v-6.7H114.6z"/>
		</g>
	</g>
</g>
<g id="Layer_2">
	<g>
		<path class="st3" d="M35.4,20c-1.5,1.7-3.6,2.7-5.9,2.7c-4.3,0-7.7-3.5-7.7-7.8c0-4.3,3.5-7.8,7.7-7.8c2.4,0,4.6,1.1,6,2.9
			l0.2,0.2l2.6-2.6l-0.2-0.2c-2.2-2.6-5.4-4-8.7-4c-6.3,0-11.4,5.1-11.4,11.5c0,6.3,5.1,11.5,11.4,11.5c3.2,0,6.3-1.4,8.5-3.8
			l0.2-0.2l-2.6-2.6L35.4,20z"/>
		<path class="st3" d="M13.6,14.3c1.6-1.1,2.6-2.7,2.6-4.4c0-3.3-3.5-5.9-7.8-5.9c-3.7,0-7,2-7.7,4.8L0.6,9l4,0.9l0.1-0.3
			c0.3-1.2,2-2.1,4-2.1c2.2,0,4,1.1,4,2.4c0,1.3-1.8,2.4-4,2.4c-0.4,0-0.4,0-0.6,0c-0.1,0-0.4,0-1.3,0l-0.3,0V16l0.3,0
			c0.8,0,1.1,0,1.2,0c0.2,0,0.2,0,0.5,0h0c3,0,5.4,1.6,5.4,3.7c0,2-2.4,3.7-5.4,3.7c-2.4,0-4.5-1.1-5.2-2.6l-0.1-0.3L0,22.6l0.1,0.2
			c1.5,2.5,4.7,4.1,8.2,4.1c5,0,9-3.1,9-6.9C17.4,17.6,16,15.6,13.6,14.3"/>
		<polygon class="st4" points="42.2,5.1 42.2,26.7 45.3,26.7 46.1,26.7 55.3,26.7 55.3,22.8 46.1,22.8 46.1,5.1 		"/>
		<g>
			<defs>
				<polygon id="SVGID_1_" points="42.2,5.1 42.2,26.7 45.3,26.7 46.1,26.7 55.3,26.7 55.3,22.8 46.1,22.8 46.1,5.1 				"/>
			</defs>
			<clipPath id="SVGID_2_">
				<use xlink:href="#SVGID_1_"  style="overflow:visible;"/>
			</clipPath>
			<rect x="42.2" y="5.1" class="st5" width="13.1" height="21.6"/>
		</g>
		<path class="st4" d="M60.1,18.5c0-2.7,2.2-4.9,5-4.9c2.7,0,5,2.2,5,4.9c0,2.7-2.2,4.9-5,4.9C62.3,23.4,60.1,21.2,60.1,18.5
			 M56.3,18.7c0,4.7,3.8,8.5,8.6,8.5c4.7,0,8.6-3.8,8.6-8.5c0-4.7-3.8-8.5-8.6-8.5C60.2,10.2,56.3,14,56.3,18.7"/>
		<g>
			<defs>
				<path id="SVGID_3_" d="M60.1,18.5c0-2.7,2.2-4.9,5-4.9c2.7,0,5,2.2,5,4.9c0,2.7-2.2,4.9-5,4.9C62.3,23.4,60.1,21.2,60.1,18.5
					 M56.3,18.7c0,4.7,3.8,8.5,8.6,8.5c4.7,0,8.6-3.8,8.6-8.5c0-4.7-3.8-8.5-8.6-8.5C60.2,10.2,56.3,14,56.3,18.7"/>
			</defs>
			<clipPath id="SVGID_4_">
				<use xlink:href="#SVGID_3_"  style="overflow:visible;"/>
			</clipPath>
			<rect x="56.3" y="10.2" class="st6" width="17.1" height="16.9"/>
		</g>
		<rect x="94.6" y="10.3" class="st4" width="3.9" height="16.4"/>
		<g>
			<defs>
				<rect id="SVGID_5_" x="94.6" y="10.3" width="3.9" height="16.4"/>
			</defs>
			<clipPath id="SVGID_6_">
				<use xlink:href="#SVGID_5_"  style="overflow:visible;"/>
			</clipPath>
			<rect x="94.6" y="10.3" class="st7" width="3.9" height="16.4"/>
		</g>
		<path class="st4" d="M93.9,5.6c0,1.4,1.2,2.6,2.6,2.6c1.4,0,2.6-1.2,2.6-2.6c0-1.4-1.2-2.6-2.6-2.6C95,3,93.9,4.2,93.9,5.6"/>
		<g>
			<defs>
				<path id="SVGID_7_" d="M93.9,5.6c0,1.4,1.2,2.6,2.6,2.6c1.4,0,2.6-1.2,2.6-2.6c0-1.4-1.2-2.6-2.6-2.6C95,3,93.9,4.2,93.9,5.6"/>
			</defs>
			<clipPath id="SVGID_8_">
				<use xlink:href="#SVGID_7_"  style="overflow:visible;"/>
			</clipPath>
			<rect x="93.9" y="3" class="st8" width="5.2" height="5.2"/>
		</g>
		<path class="st4" d="M78.6,18.5c0-2.7,2.2-4.9,5-4.9c2.7,0,5,2.2,5,4.9c0,2.7-2.2,4.9-5,4.9C80.8,23.4,78.6,21.2,78.6,18.5
			 M74.8,18.7c0,4.7,3.8,8.5,8.6,8.5c2,0,3.9-0.7,5.4-1.9v0.9l0,0c-0.6,2.2-2.6,3.8-5,3.8c-1.7,0-3.3-0.8-4.2-2.1l-3.5,1.9l0.1,0.1
			c1.6,2.4,4.3,4,7.5,4c4.5,0,8.3-3.4,8.8-7.7h0V10.4h-3.7v1.8c-1.5-1.2-3.4-1.9-5.4-1.9C78.7,10.2,74.8,14,74.8,18.7"/>
		<g>
			<defs>
				<path id="SVGID_9_" d="M78.6,18.5c0-2.7,2.2-4.9,5-4.9c2.7,0,5,2.2,5,4.9c0,2.7-2.2,4.9-5,4.9C80.8,23.4,78.6,21.2,78.6,18.5
					 M74.8,18.7c0,4.7,3.8,8.5,8.6,8.5c2,0,3.9-0.7,5.4-1.9v0.9l0,0c-0.6,2.2-2.6,3.8-5,3.8c-1.7,0-3.3-0.8-4.2-2.1l-3.5,1.9
					l0.1,0.1c1.6,2.4,4.3,4,7.5,4c4.5,0,8.3-3.4,8.8-7.7h0V10.4h-3.7v1.8c-1.5-1.2-3.4-1.9-5.4-1.9C78.7,10.2,74.8,14,74.8,18.7"/>
			</defs>
			<clipPath id="SVGID_10_">
				<use xlink:href="#SVGID_9_"  style="overflow:visible;"/>
			</clipPath>
			<rect x="74.8" y="10.2" class="st9" width="17.6" height="23.6"/>
		</g>
		<path class="st4" d="M100.7,18.7c0,4.7,3.8,8.5,8.6,8.5c3,0,5.6-1.5,7.1-3.8l-3.1-2.3c-0.9,1.4-2.4,2.3-4.2,2.3
			c-2.7,0-5-2.2-5-4.9c0-2.7,2.2-4.9,5-4.9c1.7,0,3.3,0.9,4.2,2.2l2.9-2.1c-1.6-2.1-4.1-3.5-6.9-3.5C104.6,10.2,100.7,14,100.7,18.7
			"/>
		<g>
			<defs>
				<path id="SVGID_11_" d="M100.7,18.7c0,4.7,3.8,8.5,8.6,8.5c3,0,5.6-1.5,7.1-3.8l-3.1-2.3c-0.9,1.4-2.4,2.3-4.2,2.3
					c-2.7,0-5-2.2-5-4.9c0-2.7,2.2-4.9,5-4.9c1.7,0,3.3,0.9,4.2,2.2l2.9-2.1c-1.6-2.1-4.1-3.5-6.9-3.5
					C104.6,10.2,100.7,14,100.7,18.7"/>
			</defs>
			<clipPath id="SVGID_12_">
				<use xlink:href="#SVGID_11_"  style="overflow:visible;"/>
			</clipPath>
			<rect x="100.7" y="10.2" class="st10" width="15.7" height="16.9"/>
		</g>
		<path class="st4" d="M57.2,9.5l1.2,1.1c1.8-1.5,4.2-2.3,6.7-2.3c2.5,0,4.8,0.9,6.7,2.3l1.2-1.1C70.7,7.7,68,6.6,65,6.6
			C62.1,6.6,59.3,7.7,57.2,9.5"/>
		<g>
			<defs>
				<path id="SVGID_13_" d="M57.2,9.5l1.2,1.1c1.8-1.5,4.2-2.3,6.7-2.3c2.5,0,4.8,0.9,6.7,2.3l1.2-1.1C70.7,7.7,68,6.6,65,6.6
					C62.1,6.6,59.3,7.7,57.2,9.5"/>
			</defs>
			<clipPath id="SVGID_14_">
				<use xlink:href="#SVGID_13_"  style="overflow:visible;"/>
			</clipPath>
			<rect x="57.2" y="6.6" class="st11" width="15.7" height="3.9"/>
		</g>
		<path class="st4" d="M52.7,5l1.1,1.1c2.9-2.7,6.9-4.3,11.2-4.3c4.3,0,8.2,1.6,11.1,4.3L77.3,5C74.1,2.1,69.8,0.3,65,0.3
			C60.3,0.3,56,2.1,52.7,5"/>
		<g>
			<defs>
				<path id="SVGID_15_" d="M52.7,5l1.1,1.1c2.9-2.7,6.9-4.3,11.2-4.3c4.3,0,8.2,1.6,11.1,4.3L77.3,5C74.1,2.1,69.8,0.3,65,0.3
					C60.3,0.3,56,2.1,52.7,5"/>
			</defs>
			<clipPath id="SVGID_16_">
				<use xlink:href="#SVGID_15_"  style="overflow:visible;"/>
			</clipPath>
			<rect x="52.7" y="0.3" class="st12" width="24.6" height="5.9"/>
		</g>
		<path class="st4" d="M55,7.3l1.2,1.1C58.5,6.3,61.6,5,65,5c3.4,0,6.5,1.3,8.9,3.4l1.2-1.1c-2.7-2.4-6.2-3.8-10-3.8
			C61.2,3.4,57.6,4.9,55,7.3"/>
		<g>
			<defs>
				<path id="SVGID_17_" d="M55,7.3l1.2,1.1C58.5,6.3,61.6,5,65,5c3.4,0,6.5,1.3,8.9,3.4l1.2-1.1c-2.7-2.4-6.2-3.8-10-3.8
					C61.2,3.4,57.6,4.9,55,7.3"/>
			</defs>
			<clipPath id="SVGID_18_">
				<use xlink:href="#SVGID_17_"  style="overflow:visible;"/>
			</clipPath>
			<rect x="55" y="3.4" class="st13" width="20.1" height="5"/>
		</g>
	</g>
</g>
</svg>
